<svg width="23" height="22" viewBox="0 0 23 22" fill="none" xmlns="http://www.w3.org/2000/svg">
<path d="M10.2128 1.42529L11.3056 0.341309C11.7683 -0.117676 12.5166 -0.117676 12.9744 0.341309L22.5437 9.82861C23.0064 10.2876 23.0064 11.0298 22.5437 11.4839L12.9744 20.9761C12.5116 21.4351 11.7634 21.4351 11.3056 20.9761L10.2128 19.8921C9.74519 19.4282 9.75504 18.6714 10.2325 18.2173L16.1641 12.6118H2.01685C1.36216 12.6118 0.835449 12.0894 0.835449 11.4399V9.87744C0.835449 9.22803 1.36216 8.70557 2.01685 8.70557H16.1641L10.2325 3.1001C9.75012 2.646 9.74027 1.88916 10.2128 1.42529Z" fill="black"/>
</svg>
